#!OML:ASF F:\VICON\USERDATA\Patient Classification 1\PLAYGROUND\JustinFriday\JustinFriday.ASF
:FULLY-SPECIFIED
:DEGREES
3055
root 10.093 16.8961 15.0189 -174.848 -147.125 -190.247
lowerback 13.6034 1.76498 1.2974
upperback 4.88535 2.51975 3.15764
thorax -2.56723 1.20074 2.17497
lowerneck -3.01126 -11.3463 -12.1176
upperneck -4.86491 -14.9324 23.2194
head 1.9285 -7.48832 8.39482
rclavicle -9.07949e-014 2.08724e-014
rhumerus -49.1825 -34.1296 -40.779
rradius 15.4931
rwrist 7.63
rhand -21.4572 -32.3213
rfingers 7.12502
rthumb 4.93285 -62.2438
lclavicle -9.07949e-014 2.08724e-014
lhumerus -55.8522 30.3795 50.3315
lradius 20.3663
lwrist -18.3493
lhand -17.21 5.53232
lfingers 7.12502
lthumb 9.03275 35.3189
rfemur 0.303157 -1.99397 25.6679
rtibia 35.9854
rfoot -24.8318 -22.8214
rtoes -11.1605
lfemur -19.8916 -14.221 13.9466
ltibia 29.7127
lfoot -29.6529 -3.44562
ltoes 49.1249
3056
root 10.0572 16.9139 14.9792 -175.045 -146.427 -189.822
lowerback 13.3091 1.72013 1.31445
upperback 4.96468 2.44167 2.89456
thorax -2.31106 1.16425 1.91123
lowerneck -3.04637 -11.3863 -11.8745
upperneck -4.76866 -14.994 22.8436
head 1.91534 -7.51411 8.22647
rclavicle -1.72446e-014 -2.64384e-014
rhumerus -46.5297 -36.2231 -42.3819
rradius 14.1381
rwrist 8.87571
rhand -22.469 -30.8628
rfingers 7.12502
rthumb 3.95586 -60.8058
lclavicle -1.72446e-014 -2.64384e-014
lhumerus -54.2507 30.9426 51.9994
lradius 21.5925
lwrist -15.3367
lhand -16.1294 7.65687
lfingers 7.12502
lthumb 10.0753 37.3957
rfemur 0.204449 -2.10986 25.1638
rtibia 36.1776
rfoot -24.6274 -22.6273
rtoes -12.3724
lfemur -19.6533 -15.0037 13.1141
ltibia 30.0168
lfoot -29.2986 -4.76104
ltoes 50.3409
3057
root 10.029 16.9113 14.8527 -174.714 -146.356 -190.09
lowerback 14.018 1.49178 1.24782
upperback 4.72262 2.16276 2.94551
thorax -2.9442 1.0237 2.02582
lowerneck -2.96242 -11.3516 -11.3125
upperneck -4.90019 -14.9292 22.3325
head 1.75696 -7.4987 7.99443
rclavicle -4.53229e-014 1.98785e-015
rhumerus -42.5932 -36.1349 -46.4651
rradius 13.3936
rwrist 7.20853
rhand -23.5365 -30.331
rfingers 7.12502
rthumb 2.92503 -60.2907
lclavicle -4.53229e-014 1.98785e-015
lhumerus -52.4586 30.8956 54.1145
lradius 23.0998
lwrist -10.9647
lhand -15.0657 9.83163
lfingers 7.12502
lthumb 11.1014 39.518
rfemur -0.584207 -1.28096 26.121
rtibia 36.4842
rfoot -24.3056 -23.4305
rtoes -12.0768
lfemur -20.6055 -14.5692 13.2869
ltibia 30.6038
lfoot -27.677 -5.45131
ltoes 50.2932
3058
root 9.99035 16.9356 14.8092 -175.666 -145.445 -188.85
lowerback 14.1243 1.49538 0.386728
upperback 4.80798 2.03533 2.55219
thorax -2.92436 0.959383 2.11955
lowerneck -2.74405 -11.2734 -11.0147
upperneck -5.05458 -14.8098 21.9933
head 1.59944 -7.46135 7.87312
rclavicle 7.55382e-015 -3.37934e-015
rhumerus -38.536 -34.7618 -51.1099
rradius 13.1023
rwrist 4.68027
rhand -24.0763 -29.7444
rfingers 7.12502
rthumb 2.4037 -59.7106
lclavicle 7.55382e-015 -3.37934e-015
lhumerus -50.6229 30.4775 56.4252
lradius 24.5864
lwrist -6.27044
lhand -26.8713 3.53669
lfingers 7.12502
lthumb -0.295825 33.5162
rfemur -0.324191 -1.03082 24.9517
rtibia 36.5402
rfoot -24.571 -22.8169
rtoes -11.7214
lfemur -20.1768 -14.3864 11.279
ltibia 31.3978
lfoot -27.2038 -5.9096
ltoes 49.7899
3059
root 9.95369 16.9406 14.7436 -175.866 -144.854 -188.756
lowerback 14.3745 1.40988 0.272821
upperback 4.73572 1.91074 2.5216
thorax -3.13305 0.897592 2.16721
lowerneck -2.40019 -11.2564 -11.0983
upperneck -5.08712 -14.7987 21.8166
head 1.51965 -7.47321 7.85504
rclavicle 2.55935e-014 -7.35503e-015
rhumerus -34.853 -32.6409 -55.5865
rradius 13.2449
rwrist 2.11024
rhand -23.9502 -29.2902
rfingers 7.12502
rthumb 2.52542 -59.255
lclavicle 2.55935e-014 -7.35503e-015
lhumerus -48.7936 29.7295 58.9327
lradius 25.7583
lwrist -2.93467
lhand -23.6101 6.09822
lfingers 7.12502
lthumb 2.85387 36.0589
rfemur -0.343873 -0.703138 25.038
rtibia 36.6078
rfoot -24.4472 -22.6541
rtoes -11.9361
lfemur -20.2456 -13.742 10.4672
ltibia 32.4002
lfoot -26.2463 -6.33277
ltoes 49.1486
